<?xml version="1.0" encoding="UTF-8"?><svg xmlns="http://www.w3.org/2000/svg" xmlns:xlink="http://www.w3.org/1999/xlink" id="viafoura-white-logo" width="150" height="30" viewBox="0 0 1920 383.6" style="enable-background:new 0 0 1920 383.6;" xml:space="preserve"> <style type="text/css"> .st0{fill:#FFFFFF;} </style> <g> <path class="st0" d="M309.6,116.9c0,1.1-0.2,2.1-0.7,2.9c0,0-0.2,0.4-0.3,0.6c0,0-15.8,27.7-16,28l0,0c-1.2,1.8-3.2,3-5.6,3 c-2.7,0-5.1-1.7-6.1-4l-15-27.1v0c-0.6-1-0.9-2.1-0.9-3.3c0-3.7,3-6.7,6.7-6.7h31.2C306.6,110.2,309.6,113.2,309.6,116.9 M240.2,113.9l33.9,59.4v0c0.6,1,0.9,2.1,0.9,3.3c0,1.2-0.3,2.3-0.9,3.3L244.4,231c0,0,0,0,0,0l-0.2,0.3c-1.2,1.9-3.3,3.1-5.7,3.1 c-2.9,0-5.4-1.8-6.3-4.4l-62.8-109.9c-0.6-1-0.9-2.1-0.9-3.3c0-3.7,3-6.7,6.7-6.7h58.9C236.9,110.2,239.1,111.7,240.2,113.9 M144.1,113.5l82.1,142.8c0.6,1,0.9,2.1,0.9,3.3c0,1.2-0.3,2.4-0.9,3.4l-29.7,51.2c-1.2,1.9-3.3,3.2-5.7,3.2 c-2.4,0-4.5-1.3-5.7-3.2l-0.2-0.3c0,0,0-0.1,0-0.1L73.6,120.3c-0.6-1-0.9-2.2-0.9-3.4c0-3.7,3-6.7,6.7-6.7h59l0,0 C140.8,110.2,142.9,111.6,144.1,113.5 M383.6,191.8C383.6,85.9,297.7,0,191.8,0S0,85.9,0,191.8s85.9,191.8,191.8,191.8 S383.6,297.7,383.6,191.8"></path> <polygon class="st0" points="561.1,317.2 484.9,109.5 543.3,109.5 583.3,244.5 583.8,247.5 591.8,247.5 592.2,244.5 631.3,109.5 688.7,109.5 611,317.2"></polygon> <polygon class="st0" points="784.7,317.2 784.7,109.5 731.2,109.5 708.1,149 739.2,149 734.2,171.8 734.2,317.2"></polygon> <path class="st0" d="M941.5,277.7l-4.9,1c-7.4,2-13.9,2.5-19.8,2.5c-3.5,0-7.4,0-11.9-0.5c-5.4-0.5-10.4-2-14.8-3.5 c-5-1.5-9.4-4.9-12.9-8.9c-4-4.5-5.4-10.4-5.4-17.8c0-11.9,5.4-20.3,14.8-25.2c8.4-3.5,19.3-5.9,32.2-5.9c2.5,0,4.9,0,8.4,0.5 c3.5,0,5.9,0.5,9.4,1l4.9,1V277.7z M992.9,307.8V189.6c0-28.7-6.9-50-21.8-62.8c-14.8-12.9-36.1-19.8-64.3-19.8 c-9.9,0-20.8,0.5-33.1,3c-10.8,2.5-21.1,4.4-32.9,8.3l10.7,36.9c7-1.9,13.6-3.7,20.2-4.7c8.9-2,16.8-2.5,23.7-2.5 c12.9,0,23.7,2,32.2,5.4c6.9,3,15.3,10.4,15.8,27.7v7.4l-6.9-1c-4.9,0-9.4-0.5-12.9-0.5h-8.9c-11.4,0-22.3,1-33.1,3.5 c-10.9,2.5-20.3,5.9-28.7,10.9c-8.4,4.5-15.3,11.4-20.3,19.8c-4.9,7.4-7.9,18.3-7.9,30.7c0,12.9,2,23.7,5.9,32.2 c4,8.4,9.9,15.8,17.3,20.8c7.9,5.9,17.3,9.4,28.7,11.9c11.9,3,24.7,4,38.6,4c15.8,0,31.2-1.5,45-5.4 C972.7,312.8,981.6,310.8,992.9,307.8"></path> <path class="st0" d="M1145.3,64.9L1165,31c-5.4-1.4-10.1-3.2-14.3-3.7c-6.4-1-12.9-1.5-20.3-1.5c-24.2,0-44,6.9-57.9,20.8 c0,0-12.4,10.4-16.8,21.3c-4,8.9-7.4,15.8-7.4,28.2v13.4h-28.2V149h28.2v168.2h51V168.3v-19.8h29.9l22.7-39.1h-52.7V96.1 c0-10.9,5.4-19.3,12.9-24.2c5.9-4.5,15.8-6.9,26.7-6.9H1145.3z"></path> <path class="st0" d="M1254.1,149c-14.8,0-26.2,4.9-35.1,15.8c-8.4,9.9-12.9,26.2-12.9,49c0,23.7,4,39.1,12.9,49.5 c8.4,9.9,20.8,15.3,35.1,15.3c14.8,0,26.2-4.9,35.1-15.3c8.4-9.9,12.4-25.7,12.4-49.5s-4-39.1-12.4-49.5 C1280.4,154,1268.5,149,1254.1,149 M1254.1,319.7c-13.9,0-27.7-1.5-39.1-5.4c-11.4-4-21.3-9.4-29.7-17.8 c-8.4-8.4-15.3-19.3-19.8-32.7c-4.9-13.4-7.4-30.2-7.4-49.5c0-19.3,2.5-35.1,7.4-49c5-13.4,11.9-24.2,20.3-32.7 c8.4-8.4,18.3-14.8,29.7-18.3c11.9-4,24.7-5.9,38.6-5.9s26.7,1.5,38.6,5.4c11.9,4,21.8,9.4,29.7,17.8c8.4,8.4,15.3,19.3,19.8,32.7 c4.9,13.4,7.4,30.2,7.4,49.5c0,19.8-2.5,36.1-7.4,49.5c-4.9,13.4-11.9,24.2-19.8,32.7c-8.4,8.4-18.3,13.9-29.7,17.8 C1280.9,317.7,1267.5,319.7,1254.1,319.7"></path> <path class="st0" d="M1484.7,319.7c-13.9,0-27.7-1-40.1-3.5c-11.9-2.5-22.3-6.9-31.7-12.9c-8.9-6.9-17.8-16.3-23.3-29.2 c-5.4-12.9-9.9-30.7-9.9-53.9V109.5h50.5v108.8c0,10.9,3,19.3,4.5,26.2c1.5,7.9,5.9,13.9,9.9,18.3c4,4.5,9.9,7.9,16.3,9.9 c5.4,1.5,12.4,3,19.8,3c8.4,0,16.3-0.5,23.3-1l5.4-1l-0.5-12.4V109.5h50.5v197.9c-11.4,3-19.8,5.4-31.7,7.9 C1513.9,317.7,1499,319.7,1484.7,319.7"></path> <path class="st0" d="M1739.4,150.5v-42h-0.5c-4-0.5-9.4-0.5-15.3-0.5c-6.4,0-12.4,2-17.8,3c-13.9,3-33.6,23.3-33.6,23.3V110h-57.5 l-21.3,36.6l-1.3,2.5h29.2v168.2h50.5V211.4c0-12.9,1-22.8,4-30.2c3-8.4,7.9-14.8,14.8-19.8c5.4-4,11.4-6.4,18.3-7.9 c5.4-1.5,11.9-2.5,17.3-3h0.5h6.9H1739.4z"></path> <path class="st0" d="M1868.6,277.7l-4.9,1c-7.4,2-13.9,2.5-19.8,2.5c-3.5,0-7.4,0-11.9-0.5c-5.4-0.5-10.4-2-14.8-3.5 c-5-1.5-9.4-4.9-12.9-8.9c-4-4.5-5.4-10.4-5.4-17.8c0-11.9,5.4-20.3,14.8-25.2c8.4-3.5,19.3-5.9,32.2-5.9c2.5,0,4.9,0,8.4,0.5 c3.5,0,5.9,0.5,9.4,1l4.9,1V277.7z M1920,307.8V189.6c0-28.7-6.9-50-21.8-62.8c-14.8-12.9-36.1-19.8-64.3-19.8 c-9.9,0-20.8,0.5-33.1,3c-10.8,2.5-21.1,4.4-32.9,8.3l10.7,36.9c7-1.9,13.6-3.7,20.2-4.7c8.9-2,16.8-2.5,23.7-2.5 c12.9,0,23.7,2,32.2,5.4c6.9,3,15.3,10.4,15.8,27.7v7.4l-6.9-1c-4.9,0-9.4-0.5-12.9-0.5h-8.9c-11.4,0-22.3,1-33.1,3.5 c-10.9,2.5-20.3,5.9-28.7,10.9c-8.4,4.5-15.3,11.4-20.3,19.8c-4.9,7.4-7.9,18.3-7.9,30.7c0,12.9,2,23.7,5.9,32.2 c4,8.4,9.9,15.8,17.3,20.8c7.9,5.9,17.3,9.4,28.7,11.9c11.9,3,24.7,4,38.6,4c15.8,0,31.2-1.5,45-5.4 C1899.7,312.8,1908.6,310.8,1920,307.8"></path> </g> </svg>
